<svg width="84" height="51" viewBox="0 0 84 51" fill="none" xmlns="http://www.w3.org/2000/svg">
<path d="M0 25C0 11.1929 11.1929 0 25 0C38.8071 0 50 11.1929 50 25V26C50 39.8071 38.8071 51 25 51C11.1929 51 0 39.8071 0 26V25Z" fill="#0F1B30"/>
<path fill-rule="evenodd" clip-rule="evenodd" d="M23.8168 20.0965C24.4631 20.0965 24.9846 19.9156 25.3909 19.5376C25.8004 19.1596 26.0628 18.6621 26.162 18.0353C26.2611 17.4086 26.162 16.9143 25.8644 16.5492C25.5669 16.1842 25.0934 16 24.4631 16C23.8168 16 23.2953 16.1842 22.8762 16.5492C22.4539 16.9143 22.1948 17.4086 22.0956 18.0353C21.9964 18.6621 22.0956 19.1596 22.4027 19.5376C22.7131 19.9156 23.1866 20.0965 23.8168 20.0965ZM21.8332 21.1918L20 32.7383H23.6185L25.4549 21.1918H21.8332ZM38.841 17.0564L38.3067 20.4099H34.6275L32.6663 32.7383H28.9006L30.8586 20.4099H27.1762L27.7105 17.0564H38.841ZM42.6707 29.8145C41.3205 29.8145 40.6007 29.2039 40.5143 27.9762H46.7978C46.9482 27.3753 47.073 26.7647 47.1818 26.1121C47.4313 24.5582 47.1818 23.3046 46.4523 22.3419C45.7197 21.3888 44.6543 20.9042 43.2657 20.9042C41.6661 20.9042 40.2647 21.4534 39.0778 22.5616C37.8876 23.6729 37.1422 25.1203 36.8574 26.9327C36.5727 28.7581 36.883 30.2216 37.7884 31.3297C38.6907 32.4379 40.0312 32.9871 41.7652 32.9871C43.2274 32.9871 44.5295 32.7383 45.6717 32.2311L45.5981 29.2039C44.5551 29.6207 43.5761 29.8145 42.6707 29.8145ZM42.7698 23.9572C43.1538 23.9572 43.4385 24.1026 43.6369 24.3902C43.8352 24.6745 43.8864 25.0686 43.8128 25.5758L43.7872 25.76H40.7862C41.1702 24.5452 41.8292 23.9572 42.7698 23.9572ZM51.5457 33C49.0438 33 48.0392 31.3943 48.5479 28.1862L50.3811 16.6914L54.038 16.4685L52.1792 28.1475C51.9936 29.2944 52.24 29.8694 52.9214 29.8694C53.1198 29.8694 53.3309 29.8404 53.5677 29.8016L53.3437 32.8029C52.7359 32.9354 52.1408 33 51.5457 33ZM58.5619 28.1475L60.4207 16.4685L56.7638 16.6914L54.9434 28.1862C54.4347 31.3943 55.4393 33 57.9412 33C58.5363 33 59.1314 32.9354 59.7393 32.8029L59.9632 29.8016C59.7265 29.8404 59.5185 29.8694 59.3201 29.8694C58.6259 29.8694 58.3763 29.2944 58.5619 28.1475ZM64.9702 27.9762C65.0598 29.2039 65.7764 29.8145 67.1298 29.8145C68.032 29.8145 69.011 29.6207 70.054 29.2039L70.1276 32.2311C68.9886 32.7383 67.6865 32.9871 66.2244 32.9871C64.4871 32.9871 63.1498 32.4379 62.2444 31.3297C61.3389 30.2216 61.0286 28.7581 61.3133 26.9327C61.6013 25.1203 62.3435 23.6729 63.5337 22.5616C64.7239 21.4534 66.1252 20.9042 67.7249 20.9042C69.1102 20.9042 70.1788 21.3888 70.9082 22.3419C71.6409 23.3046 71.8872 24.5582 71.6409 26.1121C71.5289 26.7647 71.4041 27.3753 71.257 27.9762H64.9702ZM68.096 24.3902C67.8976 24.1026 67.6129 23.9572 67.229 23.9572C66.2851 23.9572 65.6293 24.5452 65.2453 25.76H68.2432L68.2687 25.5758C68.3423 25.0686 68.2943 24.6745 68.096 24.3902ZM80.951 21.1918C80.4647 21.0108 79.7352 20.9171 78.7307 20.9171C77.0062 20.9171 75.4705 21.2176 74.1204 21.8314L72.3831 32.7254H76.0048L77.3549 24.2577C77.7037 24.1285 78.0972 24.0606 78.5579 24.0606C79.1274 24.0606 79.5849 24.1414 79.9464 24.2835L80.951 21.1918ZM82.4451 16.3166C81.7604 16.3166 81.2038 16.8755 81.2038 17.5701C81.2038 18.2647 81.7604 18.8236 82.4451 18.8236C83.133 18.8236 83.6865 18.2647 83.6865 17.5701C83.6865 16.8755 83.133 16.3166 82.4451 16.3166ZM80.8902 17.5701C80.8902 16.7043 81.5877 16 82.4451 16C83.3025 16 84 16.7043 84 17.5701C84 18.436 83.3025 19.1403 82.4451 19.1403C81.5877 19.1403 80.8902 18.436 80.8902 17.5701ZM82.4867 17.1631C82.2308 17.1631 82.042 17.3537 82.042 17.5701C82.042 17.7866 82.2308 17.9772 82.4867 17.9772C82.5507 17.9772 82.6115 17.9643 82.6659 17.9417C82.7458 17.9093 82.8354 17.9481 82.8706 18.0289C82.9026 18.1097 82.8642 18.2001 82.7842 18.2324C82.6915 18.2712 82.5923 18.2938 82.4867 18.2938C82.0772 18.2938 81.7317 17.9804 81.7317 17.5701C81.7317 17.1598 82.0772 16.8464 82.4867 16.8464C82.5923 16.8464 82.6915 16.8691 82.7842 16.9078C82.8642 16.9401 82.9026 17.0306 82.8706 17.1114C82.8354 17.1921 82.7458 17.2309 82.6659 17.1986C82.6115 17.176 82.5507 17.1631 82.4867 17.1631Z" fill="#F4F6FC"/>
</svg>
